<?xml version="1.0" encoding="UTF-8" standalone="no"?>
<svg
   xmlns:dc="http://purl.org/dc/elements/1.1/"
   xmlns:cc="http://creativecommons.org/ns#"
   xmlns:rdf="http://www.w3.org/1999/02/22-rdf-syntax-ns#"
   xmlns:svg="http://www.w3.org/2000/svg"
   xmlns="http://www.w3.org/2000/svg"
   xmlns:sodipodi="http://sodipodi.sourceforge.net/DTD/sodipodi-0.dtd"
   xmlns:inkscape="http://www.inkscape.org/namespaces/inkscape"
   inkscape:version="1.0 (4035a4fb49, 2020-05-01)"
   height="27"
   width="118"
   sodipodi:docname="dke-logo.svg"
   xml:space="preserve"
   viewBox="0 0 118 27"
   y="0px"
   x="0px"
   id="Ebene_1"
   version="1.1"><metadata
   id="metadata15"><rdf:RDF><cc:Work
       rdf:about=""><dc:format>image/svg+xml</dc:format><dc:type
         rdf:resource="http://purl.org/dc/dcmitype/StillImage" /><dc:title></dc:title></cc:Work></rdf:RDF></metadata><defs
   id="defs13" /><sodipodi:namedview
   inkscape:current-layer="Ebene_1"
   inkscape:window-maximized="1"
   inkscape:window-y="-6"
   inkscape:window-x="-6"
   inkscape:cy="26.493591"
   inkscape:cx="66.609802"
   inkscape:zoom="4.482906"
   showgrid="false"
   id="namedview11"
   inkscape:window-height="658"
   inkscape:window-width="1280"
   inkscape:pageshadow="2"
   inkscape:pageopacity="0"
   guidetolerance="10"
   gridtolerance="10"
   objecttolerance="10"
   borderopacity="1"
   bordercolor="#666666"
   pagecolor="#ffffff" />
<style
   id="style2"
   type="text/css">
	.st0{fill:#0069B4;}
</style>



<g
   transform="translate(0,-0.8)"
   id="g874"><g
     id="g862"><polygon
       id="polygon4"
       points="113.4,16.7 113.4,10.6 97.8,10.6 97.8,6.9 116.3,6.9 116.3,0.8 85.4,0.8 85.4,26.9 117,26.9 117,20.8 97.8,20.8 97.8,16.7 "
       class="st0" /><path
       id="path6"
       d="M 16.6,0.8 H 0 v 26 H 16.3 C 28.5,26.8 36.4,23 36.4,13.2 36.4,4.7 28.9,0.8 16.6,0.8 Z m -1.5,20 H 12.5 V 6.9 h 2.4 c 6.6,0 9.2,1.4 9.2,6.9 -0.1,4.9 -3.3,7 -9,7 z"
       class="st0" /><polygon
       id="polygon8"
       points="80.9,26.9 65.5,10.6 79.4,0.8 64.8,0.8 53.9,9.2 53.9,0.8 41.5,0.8 41.5,26.9 53.9,26.9 53.9,18.6 56.8,16.5 66,26.9 "
       class="st0" /><rect
       ry="0.673545"
       y="0.80000001"
       x="0"
       height="26.1"
       width="117"
       id="rect856"
       style="opacity:0;fill:#000000;fill-opacity:1;stroke:none;stroke-width:4" /></g><rect
     style="opacity:0;fill:#000000;fill-opacity:1;stroke:none;stroke-width:4"
     id="rect866"
     width="117"
     height="26.1"
     x="0"
     y="0.80000001"
     ry="0.673545" /></g><rect
   ry="0.673545"
   y="0.80000001"
   x="0"
   height="26.1"
   width="117"
   id="rect876"
   style="opacity:0;fill:#000000;fill-opacity:1;stroke:none;stroke-width:4" /></svg>
