<?xml version="1.0" encoding="UTF-8" standalone="no"?>
<svg
   xmlns:dc="http://purl.org/dc/elements/1.1/"
   xmlns:cc="http://creativecommons.org/ns#"
   xmlns:rdf="http://www.w3.org/1999/02/22-rdf-syntax-ns#"
   xmlns:svg="http://www.w3.org/2000/svg"
   xmlns="http://www.w3.org/2000/svg"
   xmlns:sodipodi="http://sodipodi.sourceforge.net/DTD/sodipodi-0.dtd"
   xmlns:inkscape="http://www.inkscape.org/namespaces/inkscape"
   inkscape:version="1.0 (4035a4fb49, 2020-05-01)"
   sodipodi:docname="download-bracket-svgrepo-com.svg"
   id="svg4"
   version="1.1"
   viewBox="0 0 24 24"
   height="800px"
   width="800px"
   fill="#000000">
  <metadata
     id="metadata10">
    <rdf:RDF>
      <cc:Work
         rdf:about="">
        <dc:format>image/svg+xml</dc:format>
        <dc:type
           rdf:resource="http://purl.org/dc/dcmitype/StillImage" />
      </cc:Work>
    </rdf:RDF>
  </metadata>
  <defs
     id="defs8" />
  <sodipodi:namedview
     inkscape:current-layer="svg4"
     inkscape:window-maximized="1"
     inkscape:window-y="-6"
     inkscape:window-x="-6"
     inkscape:cy="400"
     inkscape:cx="400"
     inkscape:zoom="0.6125"
     showgrid="false"
     id="namedview6"
     inkscape:window-height="658"
     inkscape:window-width="1280"
     inkscape:pageshadow="2"
     inkscape:pageopacity="0"
     guidetolerance="10"
     gridtolerance="10"
     objecttolerance="10"
     borderopacity="1"
     bordercolor="#666666"
     pagecolor="#ffffff" />
  <path
     style="fill:#0034d7;fill-opacity:0.89999998"
     id="path2"
     d="M7.293,13.707a1,1,0,1,1,1.414-1.414L11,14.586V3a1,1,0,0,1,2,0V14.586l2.293-2.293a1,1,0,0,1,1.414,1.414l-4,4a1,1,0,0,1-.325.216.986.986,0,0,1-.764,0,1,1,0,0,1-.325-.216ZM22,12a1,1,0,0,0-1,1v7H3V13a1,1,0,0,0-2,0v8a1,1,0,0,0,1,1H22a1,1,0,0,0,1-1V13A1,1,0,0,0,22,12Z" />
</svg>
